<svg width="41" height="47" viewBox="0 0 41 47" fill="none" xmlns="http://www.w3.org/2000/svg">
<path d="M37.6348 15.4665V27.8926C38.517 29.0563 39.3053 30.2576 40.0186 31.459V13.627L37.6348 15.4665Z" fill="url(#paint0_linear_2155_1458)"/>
<path d="M29.2069 22.3369C28.4561 21.8301 27.7616 21.3796 27.1422 21.0042L36.9779 13.6274L36.9967 13.6086L37.6161 13.1394L38.5171 12.4636L39.8311 11.4688L34.8193 8.57813L33.5617 7.84608L33.0361 7.54575L31.7785 6.8137L27.9118 4.58001L25.5091 3.19099L20.0094 0L11.4876 4.91788L10.0985 5.72501L4.7114 8.82215L3.32238 9.62928L0 11.5439V34.6316L3.34115 36.565L4.73017 37.3721L10.0985 40.4693C10.0985 39.5495 10.0985 38.6485 10.0985 37.7288C10.0985 37.2032 10.0985 36.6588 10.0985 36.1333C10.0985 34.5941 10.0985 33.0549 10.0985 31.5157C10.0985 30.8775 10.0985 30.2393 10.0985 29.6011C10.0985 29.1694 10.0985 28.7377 10.0985 28.3247V27.0859V24.3641C10.5678 24.0263 11.0183 23.6696 11.4876 23.3318C17.4754 18.8268 23.4819 14.3407 29.4697 9.83576L24.1764 6.75739L10.0985 17.2126V10.061L4.7114 13.1581C4.7114 19.7841 4.7114 26.3914 4.7114 33.0174C4.7114 33.5429 4.7114 34.0873 4.7114 34.6129L3.32238 33.8057L2.36509 33.2426V12.9141L3.32238 12.3698L4.7114 11.5626L10.0798 8.46551L11.4688 7.65838L19.9906 2.7405L23.6696 4.86157L24.9273 5.59362L29.9953 8.52182L31.2529 9.25387L31.7785 9.5542L32.7733 10.1173C27.3299 14.2093 18.6391 20.6851 11.8067 25.7907V32.5481L20.9855 25.6405L21.6612 25.1337L22.1492 24.7583C24.6082 25.8282 26.7668 27.3487 28.5312 28.9066L28.55 28.9254C32.0976 32.0413 34.1061 35.2886 34.1061 35.2886L32.9047 35.9831L19.9906 43.435L12.595 39.1741L11.4688 38.5171L11.45 38.4984L11.4313 40.2816L11.4688 40.244C11.4688 40.5819 11.4688 40.9198 11.4688 41.2576L19.9906 46.1755L34.0122 38.0854L35.2135 37.3909L40 34.6316V34.3501C39.6997 33.7119 39.3618 33.1112 39.0052 32.5106C36.2459 27.8179 32.2853 24.458 29.2069 22.3369Z" fill="url(#paint1_linear_2155_1458)"/>
<defs>
<linearGradient id="paint0_linear_2155_1458" x1="38.8169" y1="13.6185" x2="38.8169" y2="31.4516" gradientUnits="userSpaceOnUse">
<stop offset="0.00345423" stop-color="#AC5A26"/>
<stop offset="0.0653314" stop-color="#B76E30"/>
<stop offset="0.0837862" stop-color="#BB7533"/>
<stop offset="0.1489" stop-color="#C07D3A"/>
<stop offset="0.251" stop-color="#CD944B"/>
<stop offset="0.3766" stop-color="#E3B869"/>
<stop offset="0.4633" stop-color="#F5D580"/>
<stop offset="0.8187" stop-color="#BB7533"/>
<stop offset="0.9331" stop-color="#A65D29"/>
<stop offset="1" stop-color="#984D23"/>
</linearGradient>
<linearGradient id="paint1_linear_2155_1458" x1="20.0025" y1="3.9331e-09" x2="20.0025" y2="46.1932" gradientUnits="userSpaceOnUse">
<stop offset="0.00345423" stop-color="#AC5A26"/>
<stop offset="0.0653314" stop-color="#B76E30"/>
<stop offset="0.0837862" stop-color="#BB7533"/>
<stop offset="0.1489" stop-color="#C07D3A"/>
<stop offset="0.251" stop-color="#CD944B"/>
<stop offset="0.3766" stop-color="#E3B869"/>
<stop offset="0.4633" stop-color="#F5D580"/>
<stop offset="0.8187" stop-color="#BB7533"/>
<stop offset="0.9331" stop-color="#A65D29"/>
<stop offset="1" stop-color="#984D23"/>
</linearGradient>
</defs>
</svg>
